<svg width="20" height="20" viewBox="0 0 20 20" fill="none" xmlns="http://www.w3.org/2000/svg">
<path fill-rule="evenodd" clip-rule="evenodd" d="M8.60594 2.20594C9.50611 1.30576 10.727 0.800049 12 0.800049H14.4C14.8419 0.800049 15.2 1.15822 15.2 1.60005V4.80005C15.2 5.24188 14.8419 5.60005 14.4 5.60005H12V7.20005H14.4C14.6464 7.20005 14.879 7.31355 15.0306 7.50772C15.1822 7.70189 15.2359 7.95508 15.1762 8.19408L14.3762 11.3941C14.2871 11.7502 13.9671 12 13.6 12H12V17.6C12 18.0419 11.6419 18.4 11.2 18.4H8.00005C7.55822 18.4 7.20005 18.0419 7.20005 17.6V12H5.60005C5.15822 12 4.80005 11.6419 4.80005 11.2V8.00005C4.80005 7.55822 5.15822 7.20005 5.60005 7.20005H7.20005V5.60005C7.20005 4.32701 7.70576 3.10611 8.60594 2.20594ZM12 2.40005C11.1514 2.40005 10.3374 2.73719 9.73731 3.33731C9.13719 3.93742 8.80005 4.75136 8.80005 5.60005V8.00005C8.80005 8.44188 8.44188 8.80005 8.00005 8.80005H6.40005V10.4H8.00005C8.44188 10.4 8.80005 10.7582 8.80005 11.2V16.8H10.4V11.2C10.4 10.7582 10.7582 10.4 11.2 10.4H12.9754L13.3754 8.80005H11.2C10.7582 8.80005 10.4 8.44188 10.4 8.00005V5.60005C10.4 5.1757 10.5686 4.76874 10.8687 4.46868C11.1687 4.16862 11.5757 4.00005 12 4.00005H13.6V2.40005H12Z" fill="#4d85c5"/>
</svg>
