<svg width="19" height="19" viewBox="0 0 19 19" fill="none" xmlns="http://www.w3.org/2000/svg">
<g clip-path="url(#clip0)">
<path d="M6.57092 17.3375C4.51259 17.3375 2.37509 16.7833 0.47509 15.675C0.158423 15.5166 8.97199e-05 15.1208 0.0792564 14.8041C0.158423 14.4875 0.47509 14.25 0.791756 14.25C2.13759 14.3291 3.48342 14.0125 4.67092 13.4583C1.74176 11.6375 0.95009 9.10412 0.870923 7.12495C0.791756 4.82912 1.58342 2.92912 1.66259 2.84995C1.74176 2.61245 1.97926 2.37495 2.29592 2.37495C2.61259 2.37495 2.85009 2.45412 3.00842 2.69162C4.35426 4.59162 6.41259 5.77912 8.70842 5.93745C8.70842 4.67078 9.26259 3.48328 10.2126 2.61245C11.8751 1.18745 14.3293 1.18745 15.9918 2.61245C16.6251 2.37495 17.2584 2.05828 17.8126 1.66245C18.0501 1.50412 18.4459 1.50412 18.6834 1.66245C18.9209 1.82078 19.0793 2.21662 19.0001 2.53328C18.7626 3.64162 18.2084 4.67078 17.4168 5.54162C17.4168 5.69995 17.4168 5.77912 17.4168 5.93745C17.4168 10.2916 15.5168 13.9333 12.1126 15.8333C10.4501 16.8625 8.55009 17.3375 6.57092 17.3375ZM3.95842 15.4375C6.57092 16.0708 9.18342 15.7541 11.4001 14.4875C14.2501 12.825 15.9126 9.65829 15.9126 5.93745C15.9126 5.77912 15.9126 5.62078 15.8334 5.46245C15.7543 5.22495 15.8334 4.90828 16.0709 4.74995C16.2293 4.59162 16.3876 4.35412 16.5459 4.19578C16.3876 4.27495 16.1501 4.35412 15.9918 4.35412C15.6751 4.43328 15.3584 4.35412 15.2001 4.11662C14.1709 3.00828 12.4293 2.84995 11.3209 3.87912C10.6084 4.35412 10.2918 5.14578 10.2918 5.93745V6.72912C10.2918 7.12495 9.97509 7.52078 9.50009 7.52078C6.88759 7.59995 4.43342 6.57078 2.69176 4.74995C2.21676 6.80828 2.05842 10.6875 6.65009 12.6666C6.88759 12.825 7.12509 13.0625 7.12509 13.3791C7.12509 13.6958 7.04592 13.9333 6.80842 14.0916C5.85842 14.725 4.90842 15.2 3.95842 15.4375Z" fill="#4d85c5"/>
</g>
<defs>
<clipPath id="clip0">
<path d="M0 0H19V19H0V0Z" fill="white"/>
</clipPath>
</defs>
</svg>
