<svg width="22" height="20" viewBox="0 0 22 20" fill="none" xmlns="http://www.w3.org/2000/svg">
<g opacity="0.5">
<path fill-rule="evenodd" clip-rule="evenodd" d="M20.5656 1.83443C20.8781 2.14685 20.8781 2.65339 20.5656 2.96581L11.7656 11.7658C11.4532 12.0782 10.9467 12.0782 10.6343 11.7658C10.3219 11.4534 10.3219 10.9469 10.6343 10.6344L19.4343 1.83443C19.7467 1.52202 20.2532 1.52202 20.5656 1.83443Z" fill="#4d85c5"/>
<path fill-rule="evenodd" clip-rule="evenodd" d="M20.5656 1.83443C20.7829 2.05174 20.8566 2.37433 20.755 2.6644L15.155 18.6644C15.0467 18.974 14.7603 19.1861 14.4326 19.1995C14.1048 19.2128 13.8021 19.0248 13.6689 18.725L10.5939 11.8062L3.67504 8.73117C3.3753 8.59795 3.18725 8.29525 3.20062 7.96751C3.21399 7.63977 3.42607 7.35339 3.73567 7.24503L19.7357 1.64503C20.0257 1.54351 20.3483 1.61712 20.5656 1.83443ZM6.16882 8.0886L11.5249 10.4691C11.7059 10.5495 11.8506 10.6942 11.931 10.8752L14.3115 16.2313L18.696 3.7041L6.16882 8.0886Z" fill="#4d85c5"/>
</g>
<path fill-rule="evenodd" clip-rule="evenodd" d="M18.1657 1.03439C18.4782 1.34681 18.4782 1.85334 18.1657 2.16576L9.36574 10.9658C9.05332 11.2782 8.54679 11.2782 8.23437 10.9658C7.92195 10.6533 7.92195 10.1468 8.23437 9.83439L17.0344 1.03439C17.3468 0.721966 17.8533 0.721966 18.1657 1.03439Z" fill="#1C1B20"/>
<path fill-rule="evenodd" clip-rule="evenodd" d="M18.1657 1.03439C18.383 1.2517 18.4567 1.57428 18.3551 1.86435L12.7551 17.8644C12.6468 18.174 12.3604 18.386 12.0327 18.3994C11.7049 18.4128 11.4022 18.2247 11.269 17.925L8.19397 11.0062L1.27514 7.93112C0.975398 7.7979 0.787347 7.4952 0.800718 7.16746C0.814089 6.83972 1.02617 6.55335 1.33577 6.44499L17.3358 0.844984C17.6258 0.74346 17.9484 0.817075 18.1657 1.03439ZM3.76891 7.28856L9.12496 9.66902C9.30595 9.74946 9.45066 9.89417 9.5311 10.0752L11.9116 15.4312L16.2961 2.90405L3.76891 7.28856Z" fill="#1C1B20"/>
</svg>
