<svg width="77" height="23" viewBox="0 0 77 23" fill="none" xmlns="http://www.w3.org/2000/svg">
<path d="M24.402 17.7108C24.3394 17.861 24.402 17.9468 24.5691 17.9468H27.4509C27.597 17.9468 27.6597 17.9038 27.7014 17.7322L28.8082 14.4284H35.6786L36.8271 17.7537C36.8689 17.8824 36.9315 17.9468 37.0568 17.9468H40.043C40.2309 17.9468 40.2518 17.861 40.2101 17.7108L34.9059 2.1787C34.6553 1.38492 34.1541 0.848596 33.298 0.827148H31.3977C30.4788 0.827148 30.0403 1.29912 29.727 2.1787L24.402 17.7108ZM29.5182 11.9184L32.233 3.78768L34.9895 11.9184H29.5182ZM41.1923 17.7322C41.1923 17.9038 41.2341 17.9468 41.3802 17.9468H43.9279C44.0741 17.9468 44.1367 17.9038 44.1367 17.7322V1.04166C44.1367 0.870044 44.0741 0.827148 43.9279 0.827148H41.3802C41.2341 0.827148 41.1923 0.870044 41.1923 1.04166V17.7322ZM48.4184 8.31428H50.8616C52.7828 8.31428 53.8896 9.70875 53.8896 11.9184C53.8896 14.0852 52.929 15.544 51.1749 15.544C49.4625 15.544 48.4184 14.3641 48.4184 12.09V8.31428ZM45.6201 22.0228C45.6201 22.1945 45.6619 22.2374 45.8081 22.2374H48.2513C48.3975 22.2374 48.4601 22.1945 48.4601 22.0228V16.681C48.4601 16.681 49.2954 18.0969 51.6343 18.0969C54.5578 18.0969 56.7296 15.544 56.7296 11.8326C56.7296 8.1212 54.3281 5.73992 50.966 5.73992H47.3116C46.2884 5.73992 45.6201 6.36205 45.6201 7.41326V22.0228ZM57.858 17.7322C57.858 17.9038 57.8998 17.9468 58.046 17.9468H60.5101C60.6772 17.9468 60.7189 17.9038 60.7189 17.7322V10.9745C60.7189 9.27969 61.7004 8.27138 63.0787 8.27138C64.436 8.27138 65.4384 9.30112 65.4384 10.9745V17.7322C65.4384 17.9038 65.4801 17.9468 65.6263 17.9468H68.0696C68.2366 17.9468 68.2784 17.9038 68.2784 17.7322V10.8887C68.2784 7.58489 66.5869 5.58975 63.6634 5.58975C61.7839 5.58975 60.7189 6.68384 60.7189 6.68384V1.04166C60.7189 0.870044 60.6563 0.827148 60.5101 0.827148H58.046C57.8998 0.827148 57.858 0.870044 57.858 1.04166V17.7322ZM69.7618 17.7322C69.7618 17.9038 69.8036 17.9468 69.9497 17.9468H72.4556C72.6018 17.9468 72.6436 17.9038 72.6436 17.7322V10.9959C72.6436 9.32258 73.6251 8.42155 75.066 8.42155H76.0474C76.1936 8.42155 76.2354 8.37866 76.2354 8.20703V5.95444C76.2354 5.78282 76.1936 5.73992 76.0474 5.73992H74.8571C71.8918 5.73992 69.7618 7.64925 69.7618 10.9316V17.7322Z" fill="#F6F7F8"/>
<path fill-rule="evenodd" clip-rule="evenodd" d="M12.5412 2.47446L15.3775 7.52129L12.5216 10.4553L11.1154 7.95316C10.1858 6.29907 8.88737 6.40741 8.01866 7.95316L6.18207 11.2212L4.34547 14.4892L3.84605 17.9464C1.31753 17.9464 -0.033263 15.6733 1.26766 13.3585L4.32606 7.91648L7.38444 2.47446C8.6487 0.224838 11.2403 0.159607 12.5412 2.47446ZM16.0148 8.65531L18.658 13.3585C19.9222 15.6081 18.6814 17.9465 16.0796 17.9465H13.6348C15.494 17.9465 16.0519 16.7371 15.1832 15.1913L13.7624 12.6632L16.0148 8.65531Z" fill="#F6F7F8"/>
<path fill-rule="evenodd" clip-rule="evenodd" d="M3.84605 17.9465C5.52525 17.9465 6.75994 16.731 7.56859 15.9002C8.37725 15.0695 17.4857 5.71214 17.4857 5.71214L17.4857 5.71212C18.0205 5.16273 18.0205 4.27198 17.4857 3.72259C16.9509 3.1732 16.0839 3.1732 15.5491 3.72259L6.046 13.4853C4.38138 15.1954 1.36625 13.1832 2.52848 11.1151L1.26766 13.3585C-0.033263 15.6734 1.31753 17.9465 3.84605 17.9465Z" fill="#00A5DF"/>
<path fill-rule="evenodd" clip-rule="evenodd" d="M13.7635 17.9444C13.805 17.9458 13.8471 17.9464 13.8898 17.9464H16.0794C18.6813 17.9464 19.9221 15.6081 18.6578 13.3585L16.0146 8.65527L14.178 11.9233L13.7622 12.6632L12.3414 15.1913C11.4347 16.8047 12.117 17.8919 13.7635 17.9444Z" fill="#F6F7F8"/>
</svg>
