<svg xmlns="http://www.w3.org/2000/svg" viewBox="0 0 338 82"><defs><style>.cls-1{fill:none;}</style></defs><g id="Layer_2" data-name="Layer 2"><g id="Layer_1-2" data-name="Layer 1"><path d="M167.33,1.09c6.31,0,10,4.11,10,10s-3.65,10-10,10-10-4.18-10-10S160.94,1.09,167.33,1.09Z"/><path d="M140.57,58.33c0,4.11-.38,7.68-1.67,10.64-3.42,7.83-10.57,11.94-20.3,11.94-10.11,0-17.26-4.11-20.68-11.94-1.29-3-1.67-6.53-1.67-10.64V26.63h13.68V57.57a15.6,15.6,0,0,0,.84,6c1.44,3.34,4.56,4.56,7.83,4.56a7.72,7.72,0,0,0,7.45-4.56,15.6,15.6,0,0,0,.84-6V26.63h13.68Z"/><path d="M189.9,48V79.85H176.22V49a15.53,15.53,0,0,0-.83-6c-1.45-3.35-4.57-4.87-8.06-4.87s-6.62,1.52-8.06,4.87a15.51,15.51,0,0,0-.84,6V79.85H144.75V48c0-4.1.38-7.67,1.67-10.64,3.42-7.83,10.57-12,20.91-12s17.48,4.18,20.9,12C189.52,40.32,189.9,43.89,189.9,48Z"/><polygon points="311.23 47.39 322.48 26.63 337 26.63 317.92 61.15 317.92 79.84 303.93 79.84 303.93 61.15 285 26.63 300.06 26.63 311.23 47.39"/><polygon points="39.09 26.63 1 26.63 1 79.84 14.68 79.84 14.68 61.83 37.41 61.83 37.41 49.51 14.68 49.51 14.68 39.02 39.09 39.02 39.09 26.63"/><path d="M167.33,1.09c6.31,0,10,4.11,10,10s-3.65,10-10,10-10-4.18-10-10S160.94,1.09,167.33,1.09Z"/><path d="M140.57,58.33c0,4.11-.38,7.68-1.67,10.64-3.42,7.83-10.57,11.94-20.3,11.94-10.11,0-17.26-4.11-20.68-11.94-1.29-3-1.67-6.53-1.67-10.64V26.63h13.68V57.57a15.6,15.6,0,0,0,.84,6c1.44,3.34,4.56,4.56,7.83,4.56a7.72,7.72,0,0,0,7.45-4.56,15.6,15.6,0,0,0,.84-6V26.63h13.68Z"/><path d="M189.9,48V79.85H176.22V49a15.53,15.53,0,0,0-.83-6c-1.45-3.35-4.57-4.87-8.06-4.87s-6.62,1.52-8.06,4.87a15.51,15.51,0,0,0-.84,6V79.85H144.75V48c0-4.1.38-7.67,1.67-10.64,3.42-7.83,10.57-12,20.91-12s17.48,4.18,20.9,12C189.52,40.32,189.9,43.89,189.9,48Z"/><polygon points="311.08 47.39 322.33 26.63 336.85 26.63 317.77 61.15 317.77 79.84 303.78 79.84 303.78 61.15 284.85 26.63 299.9 26.63 311.08 47.39"/><path d="M267.37,63.05h-8.59v16.8H245.09V26.63h25.39c10.19,0,17.79,6.77,17.79,18.09,0,7-2.89,12.32-7.9,15.51l8.21,19.62H274Zm-8.59-24.63V51.11h8.59c5.09,0,7.3-2.43,7.3-6.39,0-3.72-2.21-6.3-7.3-6.3Zm8.59,24.63h-8.59v16.8H245.09V26.63h25.39c10.19,0,17.79,6.77,17.79,18.09,0,7-2.89,12.32-7.9,15.51l8.21,19.62H274Zm-8.59-24.63V51.11h8.59c5.09,0,7.3-2.43,7.3-6.39,0-3.72-2.21-6.3-7.3-6.3Z"/><path d="M194.54,79.85V26.63h19.69c17.26,0,27.37,10.49,27.37,26.61,0,16.34-9,26.61-26.53,26.61Zm13.69-12h5.7c8.89,0,13.68-4.86,13.68-14.59,0-9.5-4.79-14.6-13.68-14.6h-5.7Zm-13.69,12V26.63h19.69c17.26,0,27.37,10.49,27.37,26.61,0,16.34-9,26.61-26.53,26.61Zm13.69-12h5.7c8.89,0,13.68-4.86,13.68-14.59,0-9.5-4.79-14.6-13.68-14.6h-5.7Z"/><path d="M67.06,25.57c16,0,25.54,11.78,25.54,27.67,0,16.27-9.88,27.67-25.54,27.67-16,0-25.62-11.71-25.62-27.67C41.44,37.12,51.4,25.57,67.06,25.57ZM67,68.44c7.23,0,11.79-6,11.79-14.82C78.77,43.89,74.21,38,67.36,38c-7.45,0-12,5.85-12,14.82C55.35,62.44,59.91,68.44,67,68.44Zm.08-42.87c16,0,25.54,11.78,25.54,27.67,0,16.27-9.88,27.67-25.54,27.67-16,0-25.62-11.71-25.62-27.67C41.44,37.12,51.4,25.57,67.06,25.57ZM67,68.44c7.23,0,11.79-6,11.79-14.82C78.77,43.89,74.21,38,67.36,38c-7.45,0-12,5.85-12,14.82C55.35,62.44,59.91,68.44,67,68.44Z"/><polygon points="39.09 26.63 1 26.63 1 79.84 14.68 79.84 14.68 61.83 37.41 61.83 37.41 49.51 14.68 49.51 14.68 39.02 39.09 39.02 39.09 26.63"/><rect class="cls-1" width="338" height="82"/></g></g></svg>