<svg xmlns="http://www.w3.org/2000/svg" xmlns:xlink="http://www.w3.org/1999/xlink" viewBox="0 0 600 93.55"><defs><style>.cls-1{fill:none;}.cls-2{clip-path:url(#clip-path);}.cls-3{clip-path:url(#clip-path-2);}.cls-4{fill:#fff;}</style><clipPath id="clip-path" transform="translate(0 0)"><rect class="cls-1" width="600" height="93.55"/></clipPath><clipPath id="clip-path-2" transform="translate(0 0)"><rect class="cls-1" width="600" height="93.55"/></clipPath></defs><g id="Layer_2" data-name="Layer 2"><g id="Layer_1-2" data-name="Layer 1"><g id="Networkworld_Reverse_" data-name="Networkworld (Reverse)"><g class="cls-2"><g class="cls-3"><path class="cls-4" d="M44.66,91.67V1.41H28V19c0,9.05.12,17.75.59,26.56a84.07,84.07,0,0,0-2.94-12.1L16.22,1.41H0V91.67H16.69v-23c0-10.57-.12-12.69-.82-24.79a96.28,96.28,0,0,0,3.52,14.45c2.12,6.7,10.7,33.38,10.7,33.38Z" transform="translate(0 0)"/><polygon class="cls-4" points="86.03 91.67 86.03 76.98 65.58 76.98 65.58 52.77 81.09 52.77 81.09 38.66 65.58 38.66 65.58 15.51 83.33 15.51 83.33 1.41 47.01 1.41 47.01 91.67 86.03 91.67"/><polygon class="cls-4" points="132.68 15.51 132.68 1.41 85.56 1.41 85.56 15.51 99.66 15.51 99.66 91.67 118.46 91.67 118.46 15.51 132.68 15.51"/><path class="cls-4" d="M201.08,1.41H185.45s-2.23,19-3.76,31.26a185,185,0,0,0-.94,21.75s-.24-11.88-1.53-21.75c-1.53-12.1-2.59-20.45-4.11-31.26H160.53c-1.05,7.88-2.93,19.16-4.7,31.15-.94,6.1-.94,21.86-.94,21.86s-.23-15.64-.82-21.75C153,20.45,151.13,1.41,151.13,1.41H134l11.52,90.26h15.87s2.35-16.22,3.76-26.44,2.23-18.81,2.23-18.81,1.18,8.58,2.35,18.81S173,91.67,173,91.67H187.8Z" transform="translate(0 0)"/><path class="cls-4" d="M226.81,46.66c0,16.45-.11,18.92-.7,25.38-.59,6.12-1.41,7.64-3.53,7.64s-3.52-1.52-3.88-7.64c-.35-6.34-.35-8.93-.35-25.38,0-14.1.12-20.45.35-26.91.24-6.12,1.3-7.88,3.65-7.88,2.11,0,3.29,1.76,3.76,7.88.47,6.46.7,12.69.7,26.91m19.63,0C246.44,7.64,238.92,0,222,0s-23.27,7.05-23.27,46.66c0,40.31,8.11,46.89,23.27,46.89,16.22,0,24.44-8,24.44-46.89" transform="translate(0 0)"/><path class="cls-4" d="M276.53,27.86c0,8.46-1.41,10.92-6,10.92h-3.76V14.57h1.65c5.41,0,8.11.12,8.11,13.29m20.8,63.81c-2.35-3.41-3.76-14.34-3.88-22.56-.11-14.23-2-23-12.81-23.75,11.4-1.4,14.46-6.81,14.46-21,0-16.34-8.35-22.92-20.81-22.92H248.44V91.67h18.33V52h1.3c5.17,0,6.58,4,6.58,12.22v11c0,6.46.7,13.16,2,16.45Z" transform="translate(0 0)"/><polygon class="cls-4" points="351.14 91.67 329.4 42.9 349.38 1.41 330.11 1.41 315.88 31.97 315.88 1.41 297.31 1.41 297.31 91.67 315.88 91.67 315.88 58.29 329.63 91.67 351.14 91.67"/><path class="cls-4" d="M415.64,1.41H400s-2.23,19-3.76,31.26a185,185,0,0,0-.94,21.75s-.24-11.88-1.53-21.75c-1.53-12.1-2.59-20.45-4.11-31.26H375.1c-1.06,7.88-2.94,19.16-4.71,31.15-.94,6.1-.94,21.86-.94,21.86s-.23-15.64-.82-21.75c-1.06-12.22-2.94-31.26-2.94-31.26H348.53l11.52,90.26h15.87s2.35-16.22,3.76-26.44,2.23-18.81,2.23-18.81,1.18,8.58,2.35,18.81,3.29,26.44,3.29,26.44h14.81Z" transform="translate(0 0)"/><path class="cls-4" d="M441.37,46.66c0,16.45-.11,18.92-.7,25.38-.59,6.12-1.41,7.64-3.53,7.64s-3.52-1.52-3.87-7.64c-.36-6.34-.36-8.93-.36-25.38,0-14.1.12-20.45.36-26.91.23-6.12,1.29-7.88,3.64-7.88,2.12,0,3.29,1.76,3.76,7.88.47,6.46.7,12.69.7,26.91m19.63,0C461,7.64,453.48,0,436.56,0s-23.27,7.05-23.27,46.66c0,40.31,8.11,46.89,23.27,46.89,16.22,0,24.44-8,24.44-46.89" transform="translate(0 0)"/><path class="cls-4" d="M491.09,27.86c0,8.46-1.41,10.92-6,10.92h-3.76V14.57H483c5.41,0,8.11.12,8.11,13.29m20.8,63.81c-2.35-3.41-3.76-14.34-3.88-22.56-.11-14.23-2-23-12.81-23.75,11.4-1.4,14.46-6.81,14.46-21,0-16.34-8.35-22.92-20.8-22.92H463V91.67h18.33V52h1.3c5.17,0,6.58,4,6.58,12.22v11c0,6.46.7,13.16,2,16.45Z" transform="translate(0 0)"/><polygon class="cls-4" points="551.01 91.67 551.01 76.98 530.44 76.98 530.44 1.41 511.88 1.41 511.88 91.67 551.01 91.67"/><path class="cls-4" d="M580.37,52.77c0,24.44-1.17,24.8-6.81,24.8h-1.77V15.51h1.65c5.88,0,6.93,2.35,6.93,37.26M600,51.12c0-40.07-7.76-49.71-26.91-49.71H553.46V91.67h22.92c16.92,0,23.62-6.46,23.62-40.55" transform="translate(0 0)"/></g></g></g></g></g></svg>